<svg width="133" height="28" viewBox="0 0 133 28" fill="none" xmlns="http://www.w3.org/2000/svg">
<path d="M14.9622 26.4555L2.97601 7.04424C2.70199 6.60015 2.55594 6.08901 2.55397 5.56719C2.55199 5.04537 2.69417 4.53314 2.96482 4.08699C3.23547 3.64084 3.62408 3.2781 4.08779 3.03878C4.5515 2.79946 5.07229 2.69285 5.59274 2.73071L25.0182 4.14417C25.4653 4.17673 25.8985 4.31497 26.2819 4.54752C26.6653 4.7801 26.988 5.10035 27.2235 5.48194C27.459 5.86353 27.6006 6.29557 27.6366 6.74255C27.6725 7.18952 27.6019 7.63866 27.4305 8.053L19.9864 26.0512C19.7863 26.5322 19.4575 26.9487 19.036 27.2549C18.6146 27.5612 18.117 27.7453 17.5977 27.7871C17.0784 27.8289 16.5577 27.7268 16.0927 27.4919C15.6277 27.2569 15.2366 26.8983 14.9622 26.4555Z" fill="#2BD67B"/>
<path d="M19.6278 23.3491L1.99748 11.1877C0.210861 9.95534 0.818192 7.38939 3.04606 6.78599L21.7839 1.70033C22.1808 1.55711 22.6061 1.51061 23.0247 1.56471C23.4431 1.61881 23.8427 1.77194 24.1902 2.0114C24.5376 2.25085 24.823 2.56972 25.0225 2.94154C25.222 3.31336 25.33 3.7274 25.3375 4.14931L24.227 21.3954C24.0953 23.4424 21.4144 24.5814 19.6278 23.3491Z" fill="#0A2156"/>
<path d="M11.8553 25.7942L5.59319 3.8568C5.45012 3.35497 5.44842 2.82337 5.58828 2.32064C5.72813 1.81791 6.00412 1.36356 6.38578 1.00772C6.76746 0.651875 7.23999 0.408347 7.75128 0.303994C8.26257 0.199641 8.79274 0.238521 9.28333 0.416349L27.5942 7.05376C28.0158 7.20657 28.3951 7.45728 28.7009 7.78526C29.0067 8.11323 29.2302 8.5091 29.3533 8.94033C29.4762 9.37154 29.4951 9.82581 29.4083 10.2657C29.3215 10.7057 29.1315 11.1187 28.854 11.4709L16.8004 26.77C16.4772 27.1785 16.0476 27.4901 15.5588 27.6703C15.07 27.8506 14.5411 27.8926 14.03 27.7917C13.5189 27.6909 13.0455 27.4511 12.6618 27.0987C12.2782 26.7463 11.9991 26.2949 11.8553 25.7942Z" fill="#4070F4"/>
<path d="M73.8934 7.20751C73.8934 6.85084 73.9992 6.5022 74.1973 6.20564C74.3955 5.90909 74.6772 5.67795 75.0067 5.54145C75.3362 5.40497 75.6987 5.36926 76.0486 5.43884C76.3983 5.50842 76.7197 5.68018 76.9719 5.93237C77.2241 6.18457 77.3958 6.50589 77.4654 6.8557C77.535 7.20551 77.4993 7.5681 77.3628 7.89761C77.2263 8.22713 76.9952 8.50877 76.6987 8.70692C76.4021 8.90507 76.0534 9.01083 75.6968 9.01083C75.2199 9.00597 74.7642 8.81442 74.427 8.47728C74.0899 8.14013 73.8983 7.68427 73.8934 7.20751ZM74.1942 9.89232H77.2004V19.9103H74.1942V9.89232Z" fill="#0A2156"/>
<path d="M90.1822 14.9014C90.2172 15.5636 90.1208 16.2262 89.8988 16.851C89.6767 17.4757 89.3334 18.0505 88.8885 18.5422C88.4435 19.0338 87.9057 19.4325 87.3061 19.7157C86.7064 19.9987 86.0567 20.1605 85.3944 20.1915C84.8372 20.2218 84.2803 20.1278 83.7639 19.9164C83.2476 19.705 82.7847 19.3813 82.4088 18.969V23.918H79.4036V9.89244H82.4088V10.8339C82.7848 10.4216 83.2477 10.0982 83.7641 9.88693C84.2804 9.67569 84.8373 9.58188 85.3944 9.61234C86.0567 9.64328 86.7063 9.80488 87.306 10.0878C87.9056 10.3708 88.4434 10.7695 88.8884 11.2611C89.3334 11.7527 89.6767 12.3273 89.8988 12.9521C90.1208 13.5768 90.2172 14.2393 90.1822 14.9014ZM87.177 14.9014C87.1652 14.4324 87.0154 13.9773 86.7462 13.5929C86.477 13.2087 86.1004 12.9123 85.6637 12.741C85.2269 12.5696 84.7493 12.531 84.2906 12.6298C83.832 12.7285 83.4126 12.9603 83.085 13.2962C82.7575 13.6321 82.5363 14.0573 82.4491 14.5183C82.3619 14.9793 82.4127 15.4558 82.595 15.8881C82.7773 16.3204 83.0831 16.6893 83.474 16.9488C83.865 17.2082 84.3238 17.3465 84.7929 17.3465C85.1152 17.361 85.4367 17.3072 85.7366 17.1887C86.0366 17.07 86.308 16.8893 86.5331 16.6585C86.7583 16.4275 86.932 16.1517 87.0431 15.8488C87.154 15.546 87.1997 15.2231 87.177 14.9014Z" fill="#0A2156"/>
<path d="M99.4584 16.9033C99.4584 19.2078 97.4546 20.1895 95.2907 20.1895C94.4165 20.2687 93.5386 20.0836 92.7707 19.6584C92.0028 19.2332 91.3803 18.5874 90.9833 17.8044L93.5876 16.3225C93.6935 16.6844 93.9203 16.999 94.2304 17.2136C94.5403 17.4283 94.9147 17.53 95.2907 17.5018C96.012 17.5018 96.3717 17.2806 96.3717 16.8807C96.3717 15.778 91.4433 16.3598 91.4433 12.8927C91.4433 10.7091 93.2859 9.60744 95.3742 9.60744C96.1575 9.58285 96.933 9.76872 97.6197 10.1457C98.3076 10.5227 98.8805 11.0769 99.2805 11.7508L96.7166 13.1335C96.6045 12.8705 96.4174 12.6464 96.1787 12.4891C95.9399 12.3318 95.6601 12.2483 95.3742 12.249C94.8533 12.249 94.533 12.4456 94.533 12.8102C94.53 13.96 99.4584 13.1984 99.4584 16.9033Z" fill="#0A2156"/>
<path d="M110.442 9.89224V19.9103H107.437V18.9668C107.09 19.3824 106.649 19.7099 106.151 19.9224C105.654 20.1349 105.112 20.2264 104.572 20.1894C102.548 20.1894 100.825 18.7467 100.825 16.0412V9.89224H103.831V15.6029C103.805 15.8417 103.833 16.0832 103.91 16.3104C103.988 16.5376 104.114 16.7453 104.28 16.9188C104.446 17.0924 104.647 17.2276 104.87 17.3151C105.094 17.4028 105.334 17.4405 105.574 17.4259C106.676 17.4259 107.441 16.7852 107.441 15.3621V9.89224H110.442Z" fill="#0A2156"/>
<path d="M127.668 13.7582V19.9101H124.663V14.0196C124.663 13.0182 124.181 12.3764 123.22 12.3764C122.217 12.3764 121.657 13.0781 121.657 14.2603V19.9101H118.651V14.0196C118.651 13.0182 118.171 12.3764 117.208 12.3764C116.207 12.3764 115.646 13.0781 115.646 14.2603V19.9101H112.641V9.89208H115.651V10.81C115.962 10.4012 116.371 10.0771 116.84 9.86712C117.309 9.65721 117.824 9.56813 118.336 9.60808C118.85 9.58293 119.363 9.69147 119.823 9.92314C120.282 10.1548 120.675 10.5016 120.961 10.9299C121.294 10.4818 121.735 10.1255 122.243 9.89434C122.751 9.66315 123.31 9.56467 123.867 9.60808C126.166 9.61201 127.668 11.2542 127.668 13.7582Z" fill="#0A2156"/>
<path d="M130.214 9.83029C131.446 9.83029 132.445 8.83154 132.445 7.59949C132.445 6.36745 131.446 5.36868 130.214 5.36868C128.982 5.36868 127.983 6.36745 127.983 7.59949C127.983 8.83154 128.982 9.83029 130.214 9.83029Z" fill="#0A2156"/>
<path d="M32.8622 5.28422H35.8684V19.9103H32.8622V5.28422ZM37.5705 14.9013C37.5673 13.851 37.8757 12.8233 38.4568 11.9485C39.0378 11.0736 39.8655 10.3908 40.8349 9.98656C41.8043 9.58234 42.8718 9.47486 43.9024 9.67774C44.9329 9.88063 45.88 10.3847 46.6239 11.1262C47.3677 11.8677 47.8748 12.8132 48.0809 13.8431C48.287 14.873 48.1829 15.9409 47.7817 16.9115C47.3806 17.8822 46.7004 18.712 45.8274 19.2958C44.9543 19.8797 43.9276 20.1914 42.8773 20.1914C42.1798 20.1988 41.4877 20.0672 40.8416 19.8042C40.1955 19.5412 39.6082 19.1521 39.1142 18.6596C38.6201 18.1671 38.2292 17.5811 37.9641 16.9358C37.6991 16.2905 37.5653 15.5989 37.5705 14.9013ZM45.1848 14.9013C45.173 14.4482 45.0279 14.0087 44.7676 13.6377C44.5074 13.2667 44.1435 12.9807 43.7215 12.8154C43.2994 12.6502 42.8381 12.6129 42.3951 12.7085C41.9521 12.8041 41.5471 13.0282 41.2307 13.3527C40.9144 13.6773 40.7008 14.0879 40.6166 14.5332C40.5325 14.9786 40.5814 15.4388 40.7575 15.8564C40.9335 16.274 41.2289 16.6305 41.6064 16.8811C41.984 17.1318 42.4271 17.2656 42.8802 17.2658C43.1906 17.2746 43.4995 17.219 43.7872 17.1026C44.0751 16.9862 44.3356 16.8114 44.5525 16.5892C44.7694 16.3671 44.9379 16.1024 45.0474 15.8119C45.1569 15.5213 45.205 15.2113 45.1887 14.9013H45.1848ZM60.1705 9.88937V19.4072C60.1705 22.773 57.5456 24.1951 54.8814 24.1951C53.9437 24.2658 53.0045 24.077 52.1668 23.6494C51.3292 23.2218 50.6255 22.5717 50.1328 21.7707L52.6968 20.2877C52.9038 20.7058 53.2335 21.0507 53.6418 21.2764C54.0501 21.5021 54.5175 21.5977 54.9817 21.5505C55.278 21.5909 55.5795 21.5644 55.8641 21.4727C56.1487 21.381 56.409 21.2267 56.626 21.0209C56.8429 20.8152 57.0108 20.5635 57.1174 20.2841C57.2241 20.0048 57.2666 19.705 57.242 19.4072V18.4854C56.8899 18.9158 56.4419 19.2578 55.9339 19.4839C55.4259 19.7101 54.8719 19.814 54.3163 19.7875C52.9941 19.7463 51.7396 19.1922 50.8188 18.2422C49.898 17.2923 49.383 16.0214 49.383 14.6984C49.383 13.3753 49.898 12.1044 50.8188 11.1544C51.7396 10.2045 52.9941 9.65034 54.3163 9.60924C54.8719 9.58267 55.4259 9.6866 55.9339 9.91276C56.4419 10.1389 56.8899 10.4809 57.242 10.9114V9.88937H60.1705ZM57.2459 14.6979C57.2657 14.214 57.1403 13.7353 56.8859 13.3232C56.6315 12.9112 56.2596 12.5846 55.8181 12.3856C55.3766 12.1866 54.8856 12.1242 54.4084 12.2065C53.9312 12.2887 53.4895 12.5118 53.14 12.8471C52.7906 13.1824 52.5494 13.6145 52.4476 14.0879C52.3457 14.5614 52.3877 15.0544 52.5684 15.5038C52.7489 15.9532 53.0598 16.3382 53.461 16.6094C53.8621 16.8807 54.3353 17.0257 54.8195 17.026C55.1353 17.0481 55.4522 17.004 55.7499 16.8964C56.0475 16.7888 56.3194 16.62 56.5479 16.401C56.7764 16.182 56.9567 15.9176 57.0769 15.6248C57.197 15.332 57.2546 15.0172 57.2459 14.7008V14.6979ZM61.8726 14.8944C61.8694 13.8441 62.1777 12.8165 62.7588 11.9416C63.3399 11.0667 64.1676 10.3839 65.137 9.97968C66.1064 9.57547 67.1739 9.46798 68.2045 9.67086C69.235 9.87375 70.182 10.3778 70.926 11.1194C71.6698 11.8608 72.1769 12.8063 72.383 13.8362C72.5891 14.8661 72.485 15.934 72.0838 16.9046C71.6827 17.8753 71.0025 18.7051 70.1295 19.289C69.2564 19.8728 68.2297 20.1845 67.1794 20.1845C66.4824 20.1919 65.791 20.0605 65.1453 19.7979C64.4997 19.5354 63.9127 19.1468 63.4187 18.6551C62.9247 18.1633 62.5337 17.5782 62.2683 16.9336C62.0027 16.2891 61.8683 15.5983 61.8726 14.9013V14.8944ZM69.4868 14.8944C69.4753 14.4411 69.3302 14.0012 69.07 13.6299C68.8096 13.2586 68.4455 12.9723 68.0234 12.8068C67.6011 12.6413 67.1395 12.6041 66.6962 12.6997C66.2529 12.7952 65.8476 13.0195 65.5311 13.3442C65.2146 13.669 65.0009 14.0799 64.9167 14.5254C64.8325 14.971 64.8816 15.4316 65.0579 15.8494C65.2342 16.2672 65.5297 16.6238 65.9075 16.8746C66.2855 17.1253 66.7289 17.2589 67.1823 17.2589C67.4918 17.2671 67.7995 17.2113 68.0863 17.0951C68.3732 16.9788 68.633 16.8045 68.8493 16.5832C69.0657 16.3619 69.234 16.0982 69.3437 15.8088C69.4534 15.5194 69.5022 15.2104 69.4868 14.9013V14.8944Z" fill="#0A2156"/>
</svg>
